<?xml version="1.0" standalone="no"?><!DOCTYPE svg PUBLIC "-//W3C//DTD SVG 1.1//EN" "http://www.w3.org/Graphics/SVG/1.1/DTD/svg11.dtd"><svg t="1741163609891" class="icon" viewBox="0 0 1024 1024" version="1.1" xmlns="http://www.w3.org/2000/svg" p-id="908" xmlns:xlink="http://www.w3.org/1999/xlink" width="32" height="32"><path d="M866.98666667 513.36533333c-2.73066667 96.93866667-36.18133333 177.49333333-100.352 241.664s-144.04266667 97.62133333-240.98133334 99.66933334c-79.872-1.36533333-149.504-25.25866667-209.57866666-71.68-60.07466667-47.104-100.352-108.544-120.832-185.68533334-19.11466667-77.824-12.97066667-152.23466667 17.74933333-221.86666666s80.55466667-123.56266667 150.18666667-161.792c70.99733333-36.864 143.36-49.152 218.45333333-36.864 75.09333333 12.288 139.94666667 47.78666667 195.92533333 105.81333333h-99.66933333c-9.55733333 0-17.74933333 3.41333333-24.576 9.55733333a34.13333333 34.13333333 0 0 0-9.55733333 23.89333334c0 10.24 3.41333333 17.74933333 9.55733333 24.576 6.82666667 6.144 15.01866667 9.55733333 24.576 10.24h159.06133333c9.55733333-0.68266667 17.06666667-4.096 23.89333334-10.24 6.144-6.82666667 9.55733333-14.336 10.24-23.89333334V157.696a39.936 39.936 0 0 0-10.24-24.576 35.77173333 35.77173333 0 0 0-48.46933334 0c-6.144 6.82666667-9.55733333 15.01866667-9.55733333 24.576v53.93066667-0.68266667c-61.44-54.61333333-131.75466667-88.064-210.26133333-101.71733333a407.552 407.552 0 0 0-232.10666667 29.35466666c-75.776 33.45066667-135.168 83.968-178.176 150.86933334-43.69066667 66.90133333-65.536 141.312-66.21866667 223.91466666 2.73066667 116.05333333 43.008 212.30933333 120.14933334 289.45066667 77.14133333 77.14133333 173.39733333 117.41866667 289.45066666 120.14933333 116.05333333-2.73066667 212.30933333-43.008 289.45066667-120.14933333 77.14133333-77.14133333 117.41866667-173.39733333 120.14933333-289.45066667h-68.26666666z m-64.17066667-301.73866666v-0.68266667 0.68266667z" fill="#ffffff" p-id="909"></path></svg>